<svg width="21" height="22" viewBox="0 0 21 22" fill="none" xmlns="http://www.w3.org/2000/svg">
<g clip-path="url(#clip0_373_2256)">
<path d="M18.4192 9.42854H2.5792C2.35422 9.42377 2.13111 9.47209 1.92638 9.56991C1.72165 9.66773 1.54055 9.81255 1.3965 9.99365C1.25244 10.1747 1.14913 10.3875 1.0942 10.6161C1.03928 10.8447 1.03415 11.0833 1.0792 11.3143L2.7292 19.9571C2.79932 20.3174 2.98783 20.6405 3.26191 20.8702C3.53599 21.0999 3.87828 21.2217 4.2292 21.2143H16.7692C17.1201 21.2217 17.4624 21.0999 17.7365 20.8702C18.0106 20.6405 18.1991 20.3174 18.2692 19.9571L19.9192 11.3143C19.9642 11.0833 19.9591 10.8447 19.9042 10.6161C19.8493 10.3875 19.746 10.1747 19.6019 9.99365C19.4578 9.81255 19.2767 9.66773 19.072 9.56991C18.8673 9.47209 18.6442 9.42377 18.4192 9.42854Z" stroke="#9E54C9" stroke-width="2" stroke-linecap="round" stroke-linejoin="round"/>
<path d="M13.5 3.92871L16.5 9.42871" stroke="#9E54C9" stroke-width="2" stroke-linecap="round" stroke-linejoin="round"/>
<path d="M4.5 9.42871L7.5 3.92871" stroke="#9E54C9" stroke-width="2" stroke-linecap="round" stroke-linejoin="round"/>
</g>
<defs>
<clipPath id="clip0_373_2256">
<rect width="21" height="22" fill="white"/>
</clipPath>
</defs>
</svg>
