<svg width="89" height="89" viewBox="0 0 89 89" fill="none" xmlns="http://www.w3.org/2000/svg">
<path d="M44.4004 0.800049C20.1234 0.800049 0.400391 20.523 0.400391 44.8C0.400391 69.077 20.1234 88.8 44.4004 88.8C68.6774 88.8 88.4004 69.077 88.4004 44.8C88.4004 20.523 68.6774 0.800049 44.4004 0.800049ZM44.4004 4.80005C59.2234 4.80005 72.1364 12.8415 79.0464 24.8H44.4004C44.3215 24.7993 44.2425 24.8032 44.1641 24.8118C39.3148 24.8747 34.6535 26.6974 31.0479 29.9408C27.4424 33.1842 25.1381 37.6272 24.5641 42.4428L12.2091 21.0428C19.49 11.1875 31.1884 4.80005 44.4004 4.80005ZM9.75539 24.796L27.0794 54.8C27.1314 54.8891 27.1901 54.974 27.2552 55.054C29.0272 58.0215 31.5381 60.4791 34.5429 62.1872C37.5477 63.8953 40.9438 64.7955 44.4002 64.8001C47.1028 64.7983 49.7771 64.2489 52.2615 63.1849L39.9255 84.5499C19.9215 82.3301 4.40047 65.4019 4.40047 44.7999C4.40047 37.5065 6.35469 30.68 9.75539 24.796ZM44.4004 28.7999C48.6439 28.7999 52.7135 30.4857 55.7141 33.4862C58.7147 36.4868 60.4004 40.5565 60.4004 44.7999C60.4004 49.0434 58.7147 53.1131 55.7141 56.1137C52.7135 59.1142 48.6439 60.7999 44.4004 60.7999C40.1569 60.7999 36.0873 59.1142 33.0867 56.1137C30.0861 53.1131 28.4004 49.0434 28.4004 44.7999C28.4004 40.5565 30.0861 36.4868 33.0867 33.4862C36.0873 30.4857 40.1569 28.7999 44.4004 28.7999ZM56.3674 28.7999H81.0724C83.2095 33.699 84.4005 39.1069 84.4005 44.7999C84.4005 66.9139 66.5165 84.7989 44.4025 84.7999L61.7225 54.7999C61.78 54.7015 61.829 54.5982 61.869 54.4914C63.5211 51.5279 64.3921 48.1928 64.4002 44.8C64.3963 41.6922 63.6683 38.6282 62.2739 35.8509C60.8794 33.0736 58.8574 30.6594 56.3674 28.7999Z" fill="black"/>
</svg>
