<svg width="57" height="57" viewBox="0 0 57 57" fill="none" xmlns="http://www.w3.org/2000/svg">
<path d="M56.375 28.75C56.375 13.25 43.75 0.625 28.25 0.625C12.75 0.625 0.125 13.25 0.125 28.75C0.125 44.25 12.75 56.875 28.25 56.875C43.75 56.875 56.375 44.25 56.375 28.75ZM28.25 50.625C16.188 50.625 6.375 40.8125 6.375 28.75C6.375 16.6875 16.1875 6.875 28.25 6.875C40.3125 6.875 50.125 16.6875 50.125 28.75C50.125 40.8125 40.3125 50.625 28.25 50.625Z" fill="black"/>
<path d="M25.6565 21.4688H36.0625C37.7813 21.4688 39.1875 20.0626 39.1875 18.3438C39.1875 16.625 37.7813 15.2188 36.0625 15.2188H31.375V13.125C31.375 11.4062 29.9688 10 28.25 10C26.5312 10 25.125 11.4062 25.125 13.125V15.25C20.7812 15.5312 17.3125 19.125 17.3125 23.5312C17.3125 27.9374 21.0625 31.875 25.6563 31.875H30.8751C32.0313 31.875 32.9689 32.8125 32.9689 33.9688C32.9689 35.1251 32.0314 36.0626 30.8751 36.0626H20.4691C18.7503 36.0626 17.3441 37.4688 17.3441 39.1876C17.3441 40.9064 18.7503 42.3126 20.4691 42.3126H25.1566V44.4064C25.1566 46.1252 26.5628 47.5314 28.2816 47.5314C30.0004 47.5314 31.4066 46.1252 31.4066 44.4064V42.2814C35.7504 42.0002 39.2191 38.4064 39.2191 34.0002C39.2191 29.594 35.4691 25.6564 30.8753 25.6564H25.6565C24.5003 25.6564 23.5627 24.7189 23.5627 23.5626C23.5627 22.4063 24.5002 21.4688 25.6565 21.4688Z" fill="black"/>
</svg>
