<svg width="52" height="60" viewBox="0 0 52 60" fill="none" xmlns="http://www.w3.org/2000/svg">
<path d="M9.38644 7.45742L18.0378 11.4335L22.0144 20.0849C22.1775 20.4418 22.5339 20.6674 22.9226 20.6674C22.946 20.6674 22.9694 20.6664 22.9939 20.6649C23.4089 20.6352 23.7624 20.3515 23.8816 19.9525L29.4304 1.28506C29.5349 0.93301 29.4382 0.552151 29.1784 0.292873C28.9196 0.0335961 28.5388 -0.0630836 28.1862 0.0414086L9.51925 5.59024C9.11984 5.70889 8.83663 6.0624 8.80734 6.47793C8.77706 6.89346 9.00851 7.2836 9.38644 7.45742ZM26.987 2.48428L22.7214 16.8349L19.6999 10.2621C19.6003 10.0448 19.4265 9.87051 19.2097 9.7709L12.6364 6.7499L26.987 2.48428Z" fill="black"/>
<path d="M10.4043 41.5806H10.4697C13.1074 41.5806 15.5889 40.5503 17.4609 38.6782L22.6743 33.4648C22.6748 33.4644 22.6753 33.4643 22.6758 33.4639L29.314 26.8252L30.7344 25.4048C30.7341 25.4049 30.7345 25.4047 30.7344 25.4048L35.9521 20.1865C37.4502 18.689 39.4414 17.8643 41.5596 17.8643C43.6777 17.8643 45.6689 18.689 47.166 20.1865C50.2578 23.2783 50.2578 28.3086 47.166 31.4004L35.1904 43.3765C34.7998 43.7671 34.7998 44.3999 35.1904 44.7905C35.3857 44.9858 35.6416 45.0835 35.8975 45.0835C36.1533 45.0835 36.4092 44.9858 36.6045 44.7905L48.5801 32.8145C52.4512 28.9429 52.4512 22.644 48.5801 18.7725C46.7051 16.897 44.2119 15.8643 41.5596 15.8643C38.9072 15.8643 36.4131 16.897 34.5381 18.7725L27.8999 25.4111L16.0469 37.2642C14.5527 38.7588 12.5732 39.5806 10.4629 39.5806H10.4111C8.30859 39.5806 6.32812 38.7583 4.83301 37.2642C1.74219 34.1724 1.74219 29.1421 4.83301 26.0503L16.2373 14.6465C16.6279 14.2559 16.6279 13.623 16.2373 13.2324C15.8467 12.8418 15.2139 12.8418 14.8232 13.2324L3.41895 24.6362C-0.452148 28.5078 -0.452148 34.8066 3.41895 38.6782C5.29199 40.5508 7.77344 41.5806 10.4043 41.5806Z" fill="black"/>
<path d="M33.8533 57.6194C37.0222 54.4509 37.0222 49.2952 33.8533 46.1267C30.6853 42.9578 25.5291 42.9578 22.3611 46.1267C19.1921 49.2952 19.1921 54.4509 22.3611 57.6194C23.9451 59.2039 26.0261 59.9958 28.1072 59.9958C30.1882 59.9958 32.2693 59.2039 33.8533 57.6194ZM23.7751 47.5408C24.9695 46.3464 26.5388 45.7493 28.1072 45.7493C29.6755 45.7493 31.2449 46.3464 32.4392 47.5408C34.8279 49.9294 34.8279 53.8167 32.4392 56.2053C30.0505 58.594 26.1638 58.594 23.7751 56.2053C21.3865 53.8167 21.3865 49.9294 23.7751 47.5408Z" fill="black"/>
</svg>
