<svg width="16" height="17" viewBox="0 0 16 17" fill="none" xmlns="http://www.w3.org/2000/svg">
<path d="M3.875 5.42058C3.2075 5.42058 2.6675 4.85058 2.6675 4.146C2.6675 3.80796 2.79472 3.48376 3.02117 3.24473C3.24762 3.0057 3.55475 2.87141 3.875 2.87141C4.5425 2.87141 5.0825 3.44141 5.0825 4.146C5.0825 4.48404 4.95528 4.80823 4.72883 5.04726C4.50238 5.28629 4.19525 5.42058 3.875 5.42058ZM3.875 0.583496C2 0.583496 0.5 2.16683 0.5 4.146C0.5 6.81391 3.875 10.7643 3.875 10.7643C3.875 10.7643 7.25 6.81391 7.25 4.146C7.25 2.16683 5.75 0.583496 3.875 0.583496ZM12.125 5.42058C11.8048 5.42058 11.4976 5.28629 11.2712 5.04726C11.0447 4.80823 10.9175 4.48404 10.9175 4.146C10.9175 3.97862 10.9487 3.81287 11.0094 3.65823C11.0701 3.50359 11.159 3.36309 11.2712 3.24473C11.3833 3.12637 11.5164 3.03249 11.6629 2.96843C11.8094 2.90438 11.9664 2.87141 12.125 2.87141C12.2836 2.87141 12.4406 2.90438 12.5871 2.96843C12.7336 3.03249 12.8667 3.12637 12.9788 3.24473C13.091 3.36309 13.1799 3.50359 13.2406 3.65823C13.3013 3.81287 13.3325 3.97862 13.3325 4.146C13.3325 4.48404 13.2053 4.80823 12.9788 5.04726C12.7524 5.28629 12.4452 5.42058 12.125 5.42058ZM12.125 0.583496C10.25 0.583496 8.75 2.16683 8.75 4.146C8.75 6.81391 12.125 10.7643 12.125 10.7643C12.125 10.7643 15.5 6.81391 15.5 4.146C15.5 2.16683 14 0.583496 12.125 0.583496ZM12.125 11.6668C11.1725 11.6668 10.325 12.3002 10.01 13.2502H5.99C5.79127 12.6577 5.37812 12.1725 4.8411 11.9009C4.30408 11.6293 3.68697 11.5936 3.125 11.8014C2.84569 11.9047 2.5884 12.0651 2.36785 12.2735C2.1473 12.4818 1.96782 12.734 1.83965 13.0156C1.71149 13.2971 1.63716 13.6026 1.62092 13.9146C1.60468 14.2265 1.64684 14.5388 1.745 14.8335C1.94642 15.4276 2.36236 15.9133 2.90196 16.1848C3.44157 16.4562 4.061 16.4913 4.625 16.2822C5.2625 16.0447 5.75 15.5064 5.99 14.8335H10.0175C10.43 16.0685 11.72 16.7177 12.875 16.2822C13.1552 16.18 13.4134 16.0203 13.6349 15.8124C13.8565 15.6045 14.0369 15.3524 14.1658 15.0706C14.2947 14.7889 14.3697 14.483 14.3862 14.1706C14.4028 13.8582 14.3608 13.5454 14.2625 13.2502C13.94 12.3002 13.085 11.6668 12.125 11.6668ZM12.125 15.2293C11.8266 15.2293 11.5405 15.1042 11.3295 14.8815C11.1185 14.6588 11 14.3568 11 14.0418C11 13.7269 11.1185 13.4248 11.3295 13.2021C11.5405 12.9794 11.8266 12.8543 12.125 12.8543C12.4234 12.8543 12.7095 12.9794 12.9205 13.2021C13.1315 13.4248 13.25 13.7269 13.25 14.0418C13.25 14.3568 13.1315 14.6588 12.9205 14.8815C12.7095 15.1042 12.4234 15.2293 12.125 15.2293Z" fill="black"/>
</svg>
