<svg width="22" height="22" viewBox="0 0 22 22" fill="none" xmlns="http://www.w3.org/2000/svg">
<path d="M21.12 6.54041C21.3997 6.2617 21.6216 5.93052 21.773 5.56587C21.9244 5.20121 22.0024 4.81025 22.0024 4.41541C22.0024 4.02057 21.9244 3.62961 21.773 3.26496C21.6216 2.9003 21.3997 2.56912 21.12 2.29041L19.71 0.880413C19.4313 0.600733 19.1001 0.378822 18.7355 0.227406C18.3708 0.0759898 17.9799 -0.00195312 17.585 -0.00195312C17.1902 -0.00195312 16.7992 0.0759898 16.4346 0.227406C16.0699 0.378822 15.7387 0.600733 15.46 0.880413L0.880009 15.4604C0.60016 15.7399 0.378341 16.072 0.227316 16.4375C0.0762903 16.8031 -0.000960164 17.1949 9.00736e-06 17.5904V19.0004C9.00736e-06 19.7961 0.316079 20.5591 0.878689 21.1217C1.4413 21.6843 2.20436 22.0004 3.00001 22.0004H4.41001C4.80553 22.0014 5.19733 21.9241 5.56288 21.7731C5.92843 21.6221 6.26051 21.4003 6.54001 21.1204L21.12 6.54041ZM16.88 2.29041C17.0674 2.10416 17.3208 1.99962 17.585 1.99962C17.8492 1.99962 18.1026 2.10416 18.29 2.29041L19.71 3.71041C19.8963 3.89777 20.0008 4.15123 20.0008 4.41541C20.0008 4.6796 19.8963 4.93305 19.71 5.12041L17.59 7.24041L14.76 4.41041L16.88 2.29041ZM5.12001 19.7104C5.02657 19.8031 4.91575 19.8764 4.79392 19.9262C4.67208 19.9759 4.54162 20.0012 4.41001 20.0004H3.00001C2.73479 20.0004 2.48044 19.8951 2.2929 19.7075C2.10537 19.52 2.00001 19.2656 2.00001 19.0004V17.5904C1.99925 17.4588 2.02447 17.3283 2.07424 17.2065C2.124 17.0847 2.19733 16.9739 2.29001 16.8804L13.34 5.88041L16.17 8.71041L5.12001 19.7104Z" fill="black"/>
<path d="M21 20H11C10.7348 20 10.4804 20.1054 10.2929 20.2929C10.1054 20.4804 10 20.7348 10 21C10 21.2652 10.1054 21.5196 10.2929 21.7071C10.4804 21.8946 10.7348 22 11 22H21C21.2652 22 21.5196 21.8946 21.7071 21.7071C21.8946 21.5196 22 21.2652 22 21C22 20.7348 21.8946 20.4804 21.7071 20.2929C21.5196 20.1054 21.2652 20 21 20Z" fill="black"/>
</svg>
