<svg width="66" height="96" viewBox="0 0 66 96" fill="none" xmlns="http://www.w3.org/2000/svg">
<path d="M56.859 10.102C50.5074 3.76223 42.05 0.273929 33.031 0.273929C23.9998 0.270022 15.539 3.76223 9.19903 10.102C-10.77 30.079 9.4295 60.989 24.179 83.559C26.6595 87.3481 28.9993 90.9301 30.8782 94.071C31.3274 94.821 32.1477 95.2898 33.0266 95.2898C33.9055 95.2898 34.7258 94.8211 35.175 94.071C37.0539 90.9304 39.3938 87.3522 41.8742 83.559C56.6282 60.989 76.828 30.079 56.859 10.102ZM47.1285 33.93C47.1285 41.7112 40.8004 48.032 33.0265 48.032C25.2453 48.032 18.9245 41.7117 18.9245 33.93C18.9245 26.1483 25.2448 19.828 33.0265 19.828C40.7999 19.828 47.1285 26.1483 47.1285 33.93Z" fill="black"/>
</svg>
