<svg width="83" height="55" viewBox="0 0 83 55" fill="none" xmlns="http://www.w3.org/2000/svg">
<path d="M47.0788 20.1668C59.0525 31.3631 71.0262 42.5595 82.9998 53.7501C69.0325 44.9049 55.0651 36.0654 41.0977 27.2202C43.0914 24.8691 45.0851 22.5122 47.0788 20.1611V20.1668Z" fill="#B1B1B1"/>
<path d="M54.8869 48.015C49.3195 46.965 40.931 45.818 30.75 46.1718C15.191 46.7139 4.17111 50.4575 3.4759 48.5515C3.06796 47.4216 6.80831 45.8123 18.8797 37.1155C24.9699 32.7271 28.5552 29.8624 32.2783 26.2787C35.0419 23.6137 37.1505 21.2455 38.5237 19.6362" stroke="#C2E89D" stroke-width="6" stroke-miterlimit="10" stroke-linecap="round"/>
<path d="M39.4083 20.4809C39.8392 18.9059 39.5864 17.9871 39.2704 17.4336C38.851 16.7089 37.9432 15.6531 37.9432 15.6531C36.2483 9.62129 40.0978 4.10874 44.6138 3.48102C47.9692 3.01308 51.7325 5.24435 53.5481 9.06776" stroke="#C2E89D" stroke-width="6" stroke-miterlimit="10" stroke-linecap="round"/>
<path d="M47.0763 20.171C47.3742 15.8633 44.0999 12.1314 39.7629 11.8355C35.4259 11.5396 31.6685 14.7917 31.3705 19.0993C31.0726 23.4069 34.3469 27.1388 38.6839 27.4348C43.0209 27.7307 46.7783 24.4786 47.0763 20.171Z" fill="#0D5D5A" stroke="#C2E89D" stroke-width="3" stroke-miterlimit="10"/>
<path d="M43.2342 19.4858C43.7869 19.0075 43.2766 17.5276 42.0946 16.1804C40.9126 14.8332 39.5063 14.1288 38.9537 14.6071C38.4011 15.0854 38.9114 16.5653 40.0934 17.9125C41.2754 19.2597 42.6816 19.9641 43.2342 19.4858Z" fill="white"/>
<path d="M51 54C54.6667 53.0285 58.3333 52.0526 62 51.0811C59.7499 47.7222 57.4998 44.3633 55.2497 41" fill="#C2E89D"/>
</svg>
