<svg width="88" height="88" viewBox="0 0 88 88" fill="none" xmlns="http://www.w3.org/2000/svg">
<path d="M79.6255 57.5312L60.3755 54.9687C56.3443 54.4375 52.5005 56.5312 50.813 60.2187C50.6255 60.625 50.438 61.0625 50.2818 61.4687C45.2818 59.2812 40.6256 56.1875 36.6878 52.3437C36.344 52 36.0003 51.6875 35.6253 51.2812C31.8441 47.375 28.7191 42.7187 26.5628 37.7192C27.0003 37.563 27.4065 37.3755 27.8128 37.188C31.5003 35.5005 33.594 31.6255 33.0628 27.6255L30.5003 8.37549C29.969 4.37549 26.8441 1.15669 22.9065 0.500488C21.8753 0.312988 20.7815 0.219238 19.6565 0.219238C9.3445 0.219238 0.8445 8.28174 0.3125 18.4692C0.28125 18.8442 0.28125 19.2192 0.28125 19.5942V20.4692C0.75 57.6882 30.2812 87.2192 67.2503 87.6572C67.6253 87.6885 68.0003 87.6885 68.3753 87.6885H69.3753C79.6873 87.1572 87.7503 78.6573 87.7503 68.3445C87.7503 67.2195 87.6565 66.1257 87.469 65.0945C86.844 61.157 83.594 58.0633 79.594 57.5007L79.6255 57.5312ZM68.9375 81.5002H68.375H67.5625C33.7505 81.0627 6.93755 54.2502 6.50055 20.2192V19.6567V18.9692C6.87555 11.2504 13.8443 5.31324 21.8755 6.71924C23.0943 6.90674 24.0943 7.96924 24.2505 9.25044L26.813 28.5004C27.0005 29.7816 26.313 31.0316 25.1255 31.5629C24.0943 32.0629 22.9693 32.4067 21.813 32.5941C20.9068 32.7504 20.0942 33.2816 19.6255 34.0941C19.1568 34.8754 19.063 35.8441 19.3755 36.7191C21.8443 43.7816 25.8755 50.3441 31.0635 55.6571C31.501 56.1259 31.9385 56.5321 32.3447 56.9383C37.7197 62.1258 44.2827 66.1883 51.3447 68.6573C52.2197 68.9698 53.1885 68.8761 53.9697 68.4073C54.7509 67.9386 55.3135 67.1261 55.4697 66.2198C55.6572 65.0636 56.001 63.9386 56.5009 62.9073C57.0322 61.7198 58.2821 61.0323 59.5634 61.2198L78.8134 63.7823C80.0946 63.9386 81.126 64.9385 81.3447 66.2511C81.4697 66.9386 81.5322 67.6573 81.5322 68.4073C81.5322 75.4073 76.0633 81.1573 68.9701 81.5323L68.9375 81.5002ZM40.8755 19.0002C40.8755 17.2814 42.2817 15.8752 44.0005 15.8752C59.5005 15.8752 72.1255 28.5002 72.1255 44.0002C72.1255 45.719 70.7193 47.1252 69.0005 47.1252C67.2817 47.1252 65.8755 45.719 65.8755 44.0002C65.8755 31.9382 56.063 22.1252 44.0005 22.1252C42.2817 22.1252 40.8755 20.719 40.8755 19.0002ZM42.7193 3.62524C42.7193 1.90644 44.1255 0.500238 45.8443 0.500238C68.9693 0.500238 87.7504 19.3122 87.7504 42.4062C87.7504 44.125 86.3442 45.5312 84.6254 45.5312C82.9066 45.5312 81.5004 44.125 81.5004 42.4062C81.5004 22.7502 65.5003 6.75024 45.8443 6.75024C44.1255 6.75024 42.7193 5.34404 42.7193 3.62524Z" fill="black"/>
</svg>
