<svg width="10" height="10" viewBox="0 0 10 10" fill="none" xmlns="http://www.w3.org/2000/svg">
<path fill-rule="evenodd" clip-rule="evenodd" d="M8.2093 0.0996736L5.0437 0.536754C3.30424 0.776924 1.93667 2.14449 1.69651 3.88394C1.54419 4.98714 1.86157 6.02188 2.47667 6.81618L0.646453 8.64637C0.451182 8.84167 0.451182 9.15827 0.646453 9.35347C0.841713 9.54877 1.15829 9.54877 1.35355 9.35347L3.18377 7.52327C3.97808 8.13847 5.01284 8.45587 6.11606 8.30347C7.8555 8.06337 9.2231 6.69577 9.4633 4.95631L9.9003 1.79074C10.0363 0.805944 9.1941 -0.0362964 8.2093 0.0996736ZM3.89865 6.80842C4.47536 7.21597 5.20467 7.41987 5.97929 7.31287C7.275 7.13397 8.2937 6.11528 8.4726 4.81954L8.9097 1.65396C8.955 1.3257 8.6743 1.04495 8.346 1.09028L5.18047 1.52735C3.88473 1.70626 2.86601 2.72498 2.68711 4.02072C2.58016 4.79531 2.78407 5.52461 3.19155 6.10131L6.14644 3.14642C6.3417 2.95115 6.65829 2.95115 6.85355 3.14642C7.0488 3.34168 7.0488 3.65826 6.85355 3.85352L3.89865 6.80842Z" fill="black"/>
</svg>
