<svg width="769" height="793" viewBox="0 0 769 793" fill="none" xmlns="http://www.w3.org/2000/svg">
<path d="M457.357 450.236L698.211 691.089L668.045 721.254L423.231 476.44L39.0889 787.928C34.4116 791.505 28.5946 793.262 22.7192 792.872C16.8438 792.482 11.3099 789.972 7.14624 785.809C2.98259 781.645 0.472509 776.111 0.0826452 770.236C-0.307218 764.36 1.44967 758.543 5.02668 753.866L316.579 369.795L172.764 225.98C136.668 189.877 136.668 131.345 172.764 95.242C208.867 59.1389 267.398 59.1389 303.501 95.242L430.186 221.934L491.356 142.31L480.568 131.523C444.465 95.4198 444.465 36.8883 480.568 0.785156L510.733 30.9576C506.11 35.58 502.443 41.0676 499.942 47.1073C497.44 53.1469 496.152 59.6203 496.152 66.1576C496.152 72.6949 497.44 79.1683 499.942 85.2079C502.443 91.2476 506.11 96.7352 510.733 101.358L517.681 108.298C558.356 60.4829 629.823 52.5043 680.156 91.1745C684.237 94.3105 688.12 97.7167 691.761 101.358C738.047 147.644 738.047 222.687 691.761 268.981C689.521 271.214 687.196 273.361 684.792 275.409L741.539 332.149C777.635 368.252 777.635 426.783 741.539 462.887C705.428 498.99 646.897 498.99 610.794 462.887L537.002 389.08L457.357 450.236ZM342.797 335.676L403.967 256.053L273.336 125.414C264 116.079 251.339 110.834 238.136 110.834C224.933 110.834 212.272 116.079 202.936 125.414C193.6 134.75 188.356 147.412 188.356 160.615C188.356 173.817 193.6 186.479 202.936 195.814L342.797 335.669V335.676ZM426.929 419.8L620.337 271.292L586.161 237.109L566.044 257.219L535.878 227.054L606.278 156.654L636.444 186.826L616.333 206.936L654.47 245.08C656.973 243.139 659.348 241.041 661.581 238.801C691.213 209.176 691.213 161.148 661.581 131.516C659.253 129.186 656.776 127.01 654.164 125.002C620.927 99.4661 573.283 105.71 547.747 138.94L373.226 366.104L426.929 419.814V419.8ZM392.796 446.012L347.007 400.216L124.209 668.774L392.796 446.012ZM571.135 362.876L640.973 432.714C650.309 442.05 662.971 447.294 676.173 447.294C689.376 447.294 702.038 442.05 711.373 432.714C720.709 423.378 725.954 410.717 725.954 397.514C725.954 384.311 720.709 371.65 711.373 362.314L650.772 301.727L571.135 362.883V362.876Z" fill="black"/>
</svg>
