<svg width="96" height="78" viewBox="0 0 96 78" fill="none" xmlns="http://www.w3.org/2000/svg">
<path d="M81.3323 0.108892H14.6683C7.00034 0.108892 0.777344 6.33159 0.777344 13.9999V47.3319C0.777344 54.9999 7.00004 61.2229 14.6683 61.2229H23.0003V72.3319H20.223C18.6957 72.3319 17.4457 73.5819 17.4457 75.1092C17.4457 76.6365 18.6957 77.8865 20.223 77.8865H25.7777C34.973 77.8865 42.4457 70.4138 42.4457 61.2185H81.3367C89.0047 61.2185 95.2277 54.9958 95.2277 47.3275V13.9955C95.2277 6.32749 89.005 0.104492 81.3367 0.104492L81.3323 0.108892ZM89.6682 47.3319C89.6682 51.9139 85.9182 55.6639 81.3362 55.6639H39.6682C38.1409 55.6639 36.8909 56.9139 36.8909 58.4412V61.2185C36.8909 66.3865 33.3362 70.7458 28.5589 71.9685V58.4415C28.5589 56.9142 27.3089 55.6642 25.7816 55.6642H14.6726C10.0906 55.6642 6.34064 51.9142 6.34064 47.3322V14.0002C6.34064 9.41819 10.0906 5.66819 14.6726 5.66819H81.3406C85.9226 5.66819 89.6726 9.41819 89.6726 14.0002V47.3322L89.6682 47.3319Z" fill="black"/>
</svg>
