<svg width="20" height="21" viewBox="0 0 20 21" fill="none" xmlns="http://www.w3.org/2000/svg">
<path d="M10 0.5C4.5 0.5 0 5 0 10.5C0 16 4.5 20.5 10 20.5C10.7 20.5 11.5 20.4 12.2 20.3C12.7 20.2 13.1 19.6 13 19.1C12.9 18.6 12.3 18.2 11.8 18.3C11.2 18.4 10.6 18.5 10 18.5C5.6 18.5 2 14.9 2 10.5C2 6.1 5.6 2.5 10 2.5C14.4 2.5 18 6.1 18 10.5C18 11.1 17.9 11.7 17.8 12.3C17.7 12.8 18 13.4 18.6 13.5C18.7 13.5 18.7 13.5 18.8 13.5C19.3 13.5 19.7 13.2 19.8 12.7C20 12 20 11.2 20 10.5C20 5 15.5 0.5 10 0.5Z" fill="black"/>
<path d="M11 10.1V6.5C11 5.9 10.6 5.5 10 5.5C9.4 5.5 9 5.9 9 6.5V10.5C9 10.8 9.1 11 9.3 11.2L12.3 14.2C12.5 14.4 12.8 14.5 13 14.5C13.2 14.5 13.5 14.4 13.7 14.2C14.1 13.8 14.1 13.2 13.7 12.8L11 10.1Z" fill="black"/>
<path d="M16.6 15C16 15.8 15.3 16.5 14.5 17.1C14 17.4 13.9 18 14.2 18.5C14.4 18.8 14.7 18.9 15 18.9C15.2 18.9 15.4 18.8 15.6 18.7C16.6 18 17.5 17.1 18.2 16.1C18.5 15.6 18.4 15 17.9 14.7C17.5 14.4 16.9 14.5 16.6 15Z" fill="black"/>
</svg>
