<svg width="16" height="16" viewBox="0 0 16 16" fill="none" xmlns="http://www.w3.org/2000/svg">
<path d="M8.41227 15.3484C8.14749 15.4506 7.85418 15.4506 7.58941 15.3484V15.3484C5.52163 14.5376 3.74613 13.1226 2.49442 11.2879C1.24271 9.45311 0.572878 7.28377 0.572266 5.06272V1.71415C0.572266 1.41104 0.692673 1.12035 0.907001 0.906024C1.12133 0.691697 1.41202 0.571289 1.71512 0.571289H14.2866C14.5897 0.571289 14.8803 0.691697 15.0947 0.906024C15.309 1.12035 15.4294 1.41104 15.4294 1.71415V5.05129C15.4311 7.27429 14.7623 9.44613 13.5105 11.2831C12.2586 13.1202 10.4819 14.5369 8.41227 15.3484V15.3484Z" stroke="black" stroke-linecap="round" stroke-linejoin="round"/>
<path d="M8.00167 9.143C9.57963 9.143 10.8588 7.86381 10.8588 6.28585C10.8588 4.7079 9.57963 3.42871 8.00167 3.42871C6.42372 3.42871 5.14453 4.7079 5.14453 6.28585C5.14453 7.86381 6.42372 9.143 8.00167 9.143Z" stroke="black" stroke-linecap="round" stroke-linejoin="round"/>
<path d="M3.71484 12.7882C4.25108 12.1801 4.91057 11.6931 5.64948 11.3596C6.3884 11.026 7.18984 10.8535 8.00056 10.8535C8.81128 10.8535 9.61271 11.026 10.3516 11.3596C11.0905 11.6931 11.75 12.1801 12.2863 12.7882" stroke="black" stroke-linecap="round" stroke-linejoin="round"/>
</svg>
