<svg width="27" height="27" viewBox="0 0 27 27" fill="none" xmlns="http://www.w3.org/2000/svg">
<g clip-path="url(#clip0_373_2200)">
<path d="M22.1791 3.85693H4.82199C2.69175 3.85693 0.964844 5.58384 0.964844 7.71408V19.2855C0.964844 21.4157 2.69175 23.1426 4.82199 23.1426H22.1791C24.3094 23.1426 26.0363 21.4157 26.0363 19.2855V7.71408C26.0363 5.58384 24.3094 3.85693 22.1791 3.85693Z" stroke="#9E54C9" stroke-width="2" stroke-linecap="round" stroke-linejoin="round"/>
<path d="M10.2406 17.9739V9.87388C10.2365 9.73713 10.2699 9.60187 10.337 9.48266C10.4042 9.36346 10.5025 9.26482 10.6216 9.19737C10.7406 9.12992 10.8758 9.09621 11.0125 9.09988C11.1493 9.10354 11.2825 9.14444 11.3977 9.21817L18.3406 13.2682C18.4566 13.3362 18.5528 13.4334 18.6196 13.5502C18.6864 13.6669 18.7216 13.799 18.7216 13.9335C18.7216 14.068 18.6864 14.2002 18.6196 14.3169C18.5528 14.4336 18.4566 14.5308 18.3406 14.5989L11.3977 18.6489C11.2799 18.7169 11.1463 18.7526 11.0102 18.7523C10.8742 18.7519 10.7407 18.7157 10.6233 18.6472C10.5058 18.5786 10.4085 18.4803 10.3413 18.362C10.2741 18.2438 10.2393 18.1099 10.2406 17.9739V17.9739Z" stroke="#9E54C9" stroke-width="2" stroke-linecap="round" stroke-linejoin="round"/>
</g>
<defs>
<clipPath id="clip0_373_2200">
<rect width="27" height="27" fill="white"/>
</clipPath>
</defs>
</svg>
