<svg width="43" height="85" viewBox="0 0 43 85" fill="none" xmlns="http://www.w3.org/2000/svg">
<path d="M42.0065 41.5691C41.9111 40.5162 41.4844 39.5206 40.7878 38.7254L8.78782 1.72541C8.35694 1.22881 7.83247 0.821917 7.24434 0.528018C6.65621 0.23412 6.01595 0.0589675 5.36013 0.0125153C4.7043 -0.0339368 4.04574 0.0491995 3.42206 0.257266C2.79838 0.465333 2.22179 0.794254 1.72521 1.22516C1.22863 1.65607 0.821794 2.18054 0.527926 2.76868C0.234057 3.35682 0.0589121 3.99713 0.0124934 4.65296C-0.0339254 5.30879 0.0492908 5.96734 0.257389 6.59101C0.465488 7.21468 0.794394 7.79123 1.22533 8.28778L30.3815 42.0066L1.22533 75.7255C0.794394 76.222 0.465488 76.7986 0.257389 77.4222C0.0492908 78.0459 -0.0339254 78.7044 0.0124934 79.3602C0.0589121 80.0161 0.234057 80.6564 0.527926 81.2445C0.821794 81.8326 1.22863 82.3572 1.72521 82.7881C2.22179 83.219 2.79838 83.5478 3.42206 83.7559C4.04574 83.9639 4.7043 84.0472 5.36013 84.0007C6.01595 83.9543 6.65621 83.7791 7.24434 83.4852C7.83247 83.1913 8.35694 82.7844 8.78782 82.2878L40.7878 45.2878C41.2305 44.7817 41.5666 44.1916 41.776 43.5526C41.9854 42.9137 42.0638 42.239 42.0065 41.5691Z" fill="black"/>
</svg>
