<svg width="66" height="66" viewBox="0 0 66 66" fill="none" xmlns="http://www.w3.org/2000/svg">
<path fill-rule="evenodd" clip-rule="evenodd" d="M3.83202 29.6211H62.168C62.2774 29.6211 62.3868 29.629 62.4961 29.6368C62.6094 29.6485 62.7188 29.6641 62.8243 29.6875C62.9336 29.7071 63.043 29.7344 63.1485 29.7657C63.254 29.8008 63.3555 29.836 63.461 29.879C63.5625 29.9219 63.6602 29.9688 63.7579 30.0196C63.8555 30.0743 63.9532 30.129 64.043 30.1915C64.1368 30.254 64.2227 30.3165 64.3086 30.3868C64.3946 30.4571 64.4766 30.5313 64.5547 30.6094C64.6328 30.6875 64.7071 30.7696 64.7774 30.8555C64.8477 30.9414 64.9141 31.0313 64.9766 31.125C65.0391 31.2149 65.0938 31.3086 65.1446 31.4063C65.1993 31.5039 65.2461 31.6055 65.2891 31.7071C65.3321 31.8086 65.3672 31.9141 65.3985 32.0196C65.4297 32.125 65.4571 32.2305 65.4805 32.3399C65.5 32.4493 65.5196 32.5586 65.5274 32.668C65.5391 32.7774 65.5469 32.8907 65.5469 33C65.5469 33.1094 65.5391 33.2227 65.5274 33.3321C65.5196 33.4414 65.5 33.5508 65.4805 33.6602C65.4571 33.7696 65.4297 33.875 65.3985 33.9805C65.3672 34.086 65.3321 34.1914 65.2891 34.293C65.2461 34.3946 65.1993 34.4961 65.1446 34.5938C65.0938 34.6914 65.0391 34.7852 64.9766 34.875C64.9141 34.9688 64.8477 35.0586 64.7774 35.1446C64.7071 35.2305 64.6329 35.3125 64.5547 35.3906C64.4766 35.4688 64.3946 35.543 64.3086 35.6133C64.2227 35.6836 64.1368 35.7461 64.043 35.8086C63.9532 35.8711 63.8555 35.9258 63.7579 35.9805C63.6602 36.0313 63.5625 36.0781 63.461 36.1211C63.3555 36.1641 63.254 36.1992 63.1485 36.2344C63.043 36.2656 62.9336 36.293 62.8243 36.3125C62.7188 36.336 62.6094 36.3516 62.4961 36.3633C62.3868 36.3711 62.2774 36.3789 62.168 36.3789H3.83202C3.72264 36.3789 3.61327 36.3711 3.5039 36.3633C3.39062 36.3516 3.28124 36.336 3.17578 36.3125C3.0664 36.293 2.95703 36.2656 2.85156 36.2344C2.74609 36.1992 2.64453 36.1641 2.53906 36.1211C2.4375 36.0781 2.33984 36.0313 2.24219 35.9805C2.14454 35.9258 2.04688 35.8711 1.95703 35.8086C1.86328 35.7461 1.77734 35.6836 1.69141 35.6133C1.60547 35.543 1.52344 35.4688 1.44532 35.3906C1.3672 35.3125 1.29298 35.2305 1.22266 35.1446C1.15235 35.0586 1.08594 34.9688 1.02344 34.875C0.960943 34.7852 0.906253 34.6914 0.855473 34.5938C0.800785 34.4961 0.753913 34.3946 0.710943 34.293C0.667974 34.1914 0.632817 34.086 0.601562 33.9805C0.566406 33.875 0.542969 33.7696 0.519531 33.6602C0.5 33.5508 0.480469 33.4414 0.472656 33.3321C0.460938 33.2227 0.453125 33.1094 0.453125 33C0.453125 32.8907 0.460938 32.7774 0.472656 32.668C0.480469 32.5586 0.5 32.4493 0.519531 32.3399C0.542969 32.2305 0.566406 32.125 0.601562 32.0196C0.632812 31.9141 0.66797 31.8086 0.710943 31.7071C0.753911 31.6055 0.800786 31.504 0.855473 31.4063C0.906254 31.3086 0.960943 31.2149 1.02344 31.125C1.08594 31.0313 1.15235 30.9415 1.22266 30.8555C1.29297 30.7696 1.36719 30.6875 1.44532 30.6094C1.52345 30.5313 1.60548 30.4571 1.69141 30.3868C1.77735 30.3164 1.86329 30.254 1.95703 30.1915C2.04688 30.129 2.14453 30.0743 2.24219 30.0196C2.33985 29.9688 2.4375 29.9219 2.53906 29.879C2.64453 29.836 2.74609 29.8008 2.85156 29.7657C2.95703 29.7344 3.0664 29.7071 3.17578 29.6875C3.28125 29.6641 3.39062 29.6485 3.5039 29.6368C3.61328 29.629 3.72265 29.6211 3.83202 29.6211Z" fill="black"/>
<path fill-rule="evenodd" clip-rule="evenodd" d="M35.391 6.22314C35.5473 6.06689 35.6879 5.89502 35.809 5.71142C35.934 5.52783 36.0356 5.33251 36.1215 5.12548C36.2074 4.92236 36.2699 4.71142 36.3129 4.49267C36.3559 4.27392 36.3793 4.05517 36.3793 3.83251C36.3793 3.72313 36.3715 3.61376 36.3637 3.50439C36.352 3.39111 36.3363 3.28173 36.3129 3.17627C36.2934 3.06689 36.266 2.95752 36.2348 2.85205C36.1996 2.74658 36.1645 2.64502 36.1215 2.53955C36.0785 2.43799 36.0317 2.34033 35.9809 2.24268C35.9262 2.14502 35.8715 2.04737 35.809 1.95752C35.7465 1.86377 35.684 1.77783 35.6137 1.6919C35.5434 1.60596 35.4692 1.52393 35.391 1.44581C35.3129 1.36769 35.2309 1.29347 35.1449 1.22315C35.059 1.15284 34.9692 1.08643 34.8754 1.02393C34.7856 0.961432 34.6918 0.906741 34.5942 0.855961C34.4965 0.801273 34.3949 0.754402 34.2934 0.711432C34.1918 0.668463 34.0863 0.633305 33.9809 0.602051C33.8754 0.566895 33.7699 0.543458 33.6606 0.52002C33.5512 0.500489 33.4418 0.480958 33.3324 0.473145C33.2231 0.461427 33.1098 0.453613 33.0004 0.453613C32.7778 0.453613 32.559 0.477051 32.3403 0.52002C32.1254 0.562989 31.9145 0.6294 31.7074 0.71143C31.5043 0.797367 31.309 0.90284 31.1254 1.02393C30.9379 1.14893 30.7699 1.28955 30.6098 1.4458L1.44532 30.6094C1.36719 30.6875 1.29297 30.7696 1.22266 30.8555C1.15235 30.9415 1.08594 31.0313 1.02344 31.125C0.960943 31.2149 0.906254 31.3086 0.855473 31.4063C0.800786 31.504 0.753911 31.6055 0.710943 31.7071C0.66797 31.8086 0.632812 31.9141 0.601562 32.0196C0.566406 32.125 0.542969 32.2305 0.519531 32.3399C0.5 32.4493 0.480469 32.5586 0.472656 32.668C0.460938 32.7774 0.453125 32.8907 0.453125 33C0.453125 33.1094 0.460938 33.2227 0.472656 33.3321C0.480469 33.4414 0.5 33.5508 0.519531 33.6602C0.542969 33.7696 0.566406 33.875 0.601562 33.9805C0.632817 34.086 0.667974 34.1914 0.710943 34.293C0.753913 34.3946 0.800785 34.4961 0.855473 34.5938C0.906253 34.6914 0.960943 34.7852 1.02344 34.875C1.08594 34.9688 1.15235 35.0586 1.22266 35.1446C1.29298 35.2305 1.3672 35.3125 1.44532 35.3906L30.6098 64.555C30.77 64.7113 30.9379 64.8519 31.1254 64.9769C31.309 65.098 31.5043 65.2034 31.7074 65.2894C31.9145 65.3714 32.1254 65.4378 32.3403 65.4808C32.559 65.5238 32.7778 65.5472 33.0004 65.5472C33.1098 65.5472 33.2231 65.5394 33.3324 65.5277C33.4418 65.5199 33.5512 65.5003 33.6606 65.4808C33.7699 65.4574 33.8754 65.43 33.9809 65.3988C34.0863 65.3675 34.1918 65.3324 34.2934 65.2894C34.3949 65.2464 34.4965 65.1995 34.5942 65.1449C34.6918 65.0941 34.7856 65.0394 34.8754 64.9769C34.9692 64.9144 35.059 64.848 35.1449 64.7777C35.2309 64.7074 35.3129 64.6331 35.391 64.555C35.4692 64.4769 35.5434 64.3948 35.6137 64.3089C35.684 64.223 35.7465 64.137 35.809 64.0433C35.8715 63.9535 35.9262 63.8558 35.9809 63.7581C36.0317 63.6605 36.0785 63.5628 36.1215 63.4613C36.1645 63.3558 36.1996 63.2542 36.2348 63.1488C36.266 63.0433 36.2934 62.9339 36.3129 62.8246C36.3363 62.7191 36.352 62.6097 36.3637 62.4964C36.3715 62.387 36.3793 62.2777 36.3793 62.1683C36.3793 61.9456 36.3559 61.7269 36.3129 61.5082C36.2699 61.2894 36.2074 61.0785 36.1215 60.8753C36.0356 60.6683 35.934 60.473 35.809 60.2894C35.6879 60.1058 35.5473 59.9339 35.391 59.7777L8.61012 33.0008L35.391 6.22314Z" fill="black"/>
</svg>
